<svg width="78" height="120" viewBox="0 0 78 120" fill="none" xmlns="http://www.w3.org/2000/svg">
<path d="M35.6997 38.3127C35.4242 36.7504 39.8792 37.493 40.8323 37.3477C49.3165 36.0544 59.7026 37.7356 66.1674 30.6635C69.8987 26.5817 71.6204 23.3599 70.6761 18.0047C69.8135 13.1125 67.1811 9.2434 62.8226 7.10633C56.585 4.04799 57.4697 11.6412 47.7981 16.706C38.1265 21.7708 8.49269 15.0624 6.97637 19.9195C5.46005 24.7765 10.5119 76.5388 18.2611 97.6805C26.0103 118.822 32.0449 119.733 35.3894 94.6604C35.8753 91.3833 37.9738 80.3393 39.8894 77.6036C45.1097 70.1481 65.9045 71.0726 64.1278 61.5149C63.7141 59.2891 48.9461 56.679 48.9461 56.679C48.9461 56.679 40.2408 53.8263 38.8191 50.7242C36.9912 46.7354 36.5635 43.2111 35.6997 38.3127Z" fill="#70A597" stroke="#70A597" stroke-width="12.6243" stroke-linecap="round"/>
</svg>